HIERARCHY
ROOT Hips
{
	OFFSET -0.001795 -0.223333 0.028219
	CHANNELS 6 Xposition Yposition Zposition Zrotation Yrotation Xrotation 
	JOINT LeftUpLeg
	{
		OFFSET 0.069520 -0.091406 -0.006815
		CHANNELS 3 Zrotation Yrotation Xrotation
		JOINT LeftLeg
		{
			OFFSET 0.034277 -0.375199 -0.004496
			CHANNELS 3 Zrotation Yrotation Xrotation
			JOINT LeftFoot
			{
				OFFSET -0.013596 -0.397961 -0.043693
				CHANNELS 3 Zrotation Yrotation Xrotation
				JOINT LeftToe
				{
					OFFSET 0.026358 -0.055791 0.119288
					CHANNELS 3 Zrotation Yrotation Xrotation
					End Site
					{
						OFFSET 0.000000 0.000000 0.000000
					}
				}
			}
		}
	}
	JOINT RightUpLeg
	{
		OFFSET -0.067670 -0.090522 -0.004320
		CHANNELS 3 Zrotation Yrotation Xrotation
		JOINT RightLeg
		{
			OFFSET -0.038290 -0.382569 -0.008850
			CHANNELS 3 Zrotation Yrotation Xrotation
			JOINT RightFoot
			{
				OFFSET 0.015774 -0.398415 -0.042312
				CHANNELS 3 Zrotation Yrotation Xrotation
				JOINT RightToe
				{
					OFFSET -0.025372 -0.048144 0.123348
					CHANNELS 3 Zrotation Yrotation Xrotation
					End Site
					{
						OFFSET 0.000000 0.000000 0.000000
					}
				}
			}
		}
	}
	JOINT Spine
	{
		OFFSET -0.002533 0.108963 -0.026696
		CHANNELS 3 Zrotation Yrotation Xrotation
		JOINT Spine1
		{
			OFFSET 0.005487 0.135180 0.001092
			CHANNELS 3 Zrotation Yrotation Xrotation
			JOINT Spine2
			{
				OFFSET 0.001457 0.052922 0.025425
				CHANNELS 3 Zrotation Yrotation Xrotation
				JOINT Neck
				{
					OFFSET -0.002778 0.213870 -0.042857
					CHANNELS 3 Zrotation Yrotation Xrotation
					JOINT Head
					{
						OFFSET 0.005152 0.064970 0.051349
						CHANNELS 3 Zrotation Yrotation Xrotation
						End Site
						{
							OFFSET 0.000000 0.000000 0.000000
						}
					}
				}
				JOINT LeftShoulder
				{
					OFFSET 0.078845 0.121749 -0.034090
					CHANNELS 3 Zrotation Yrotation Xrotation
					JOINT LeftArm
					{
						OFFSET 0.090977 0.030469 -0.008868
						CHANNELS 3 Zrotation Yrotation Xrotation
						JOINT LeftForeArm
						{
							OFFSET 0.259612 -0.012772 -0.027456
							CHANNELS 3 Zrotation Yrotation Xrotation
							JOINT LeftHand
							{
								OFFSET 0.249234 0.008986 -0.001171
								CHANNELS 3 Zrotation Yrotation Xrotation
								End Site
								{
									OFFSET 0.000000 0.000000 0.000000
								}
							}
						}
					}
				}
				JOINT RightShoulder
				{
					OFFSET -0.081759 0.118833 -0.038615
					CHANNELS 3 Zrotation Yrotation Xrotation
					JOINT RightArm
					{
						OFFSET -0.096012 0.032551 -0.009143
						CHANNELS 3 Zrotation Yrotation Xrotation
						JOINT RightForeArm
						{
							OFFSET -0.253742 -0.013329 -0.021401
							CHANNELS 3 Zrotation Yrotation Xrotation
							JOINT RightHand
							{
								OFFSET -0.255298 0.007772 -0.005559
								CHANNELS 3 Zrotation Yrotation Xrotation
								End Site
								{
									OFFSET 0.000000 0.000000 0.000000
								}
							}
						}
					}
				}
			}
		}
	}
}
MOTION
Frames: 6
Frame Time: 0.050000
0.000000 0.893468 0.000000 2.024315 -35.336783 4.020998 -1.149279 2.096050 -43.291299 0.131431 2.024145 28.717051 -2.947290 -2.352795 14.366812 0.000000 0.000000 0.000000 -2.614632 0.256356 5.880720 2.632553 5.491430 38.018723 -0.868269 -6.837901 7.483524 0.000000 0.000000 0.000000 -0.107882 -0.081554 9.991625 -2.905646 0.866668 -26.823690 7.676162 32.134515 30.405515 11.980810 -2.055704 -35.191429 0.000000 0.000000 0.000000 -3.666660 -0.444682 -0.626192 -50.261334 0.948143 -8.696990 95.696561 -77.489970 -80.462019 0.000000 0.000000 0.000000 16.198009 4.983648 3.712766 63.554734 18.370443 1.470699 8.639918 46.530253 8.119772 0.000000 0.000000 0.000000 
-0.026498 0.896283 0.043805 2.059063 -35.863697 3.850291 -2.306837 1.173976 -40.104052 0.696659 1.778887 27.317914 -3.788280 -4.154450 12.570099 0.000000 0.000000 0.000000 -3.036583 0.331801 2.720057 6.341186 5.453981 43.208667 -2.015050 -7.299441 4.579290 0.000000 0.000000 0.000000 -0.896588 -0.018197 8.695593 0.515156 -0.018855 -24.512009 4.947867 28.404052 28.972513 7.160382 -0.591513 -33.448581 0.000000 0.000000 0.000000 -4.183608 -1.132577 -0.111037 -45.762565 -2.898272 -6.411660 88.385054 -64.171090 -58.391679 0.000000 0.000000 0.000000 15.871082 6.492399 3.457083 62.128922 12.100117 -2.209064 12.395091 47.072271 8.965985 0.000000 0.000000 0.000000 
-0.052422 0.906444 0.081007 0.295626 -36.854882 3.270793 -2.276952 0.657872 -35.719362 0.405997 2.755570 30.403246 -0.542968 -0.161724 7.125613 0.000000 0.000000 0.000000 -3.200870 0.416625 -0.598310 13.295015 3.750731 47.627193 -1.851429 -9.706931 9.702980 0.000000 0.000000 0.000000 1.632674 -0.279611 9.753742 0.151646 0.045076 -24.922505 4.250706 27.596472 28.511631 6.270967 -0.285350 -34.473929 0.000000 0.000000 0.000000 -4.171546 -4.086675 1.221032 -38.072145 -11.323840 -3.064727 82.731988 -53.277319 -43.576377 0.000000 0.000000 0.000000 17.558873 3.118359 1.386263 61.546398 8.282115 -4.361574 15.122260 43.991801 9.166941 0.000000 0.000000 0.000000 
-0.074989 0.919396 0.111286 -0.451883 -40.273689 3.469647 -1.289871 0.792202 -31.643349 -0.175254 3.382065 29.222155 0.180084 0.680337 4.749427 0.000000 0.000000 0.000000 -2.278809 0.565918 -4.934025 14.586315 4.609819 50.429874 -4.612339 -13.904167 7.700723 0.000000 0.000000 0.000000 2.577779 -0.349024 9.092264 0.591511 -0.177692 -23.912934 2.587010 24.908974 27.032377 7.111033 -1.660723 -32.654825 0.000000 0.000000 0.000000 2.591453 -4.349828 1.438097 -35.260011 -13.854803 -2.073657 79.064595 -41.877741 -29.587182 0.000000 0.000000 0.000000 18.958025 2.987850 -0.021914 60.704698 5.326954 -5.759443 14.146786 40.879391 7.256571 0.000000 0.000000 0.000000 
-0.094486 0.933467 0.135267 -1.625154 -43.320303 4.730717 0.557464 0.949148 -26.645848 -2.159703 3.840928 24.927337 1.806334 3.532931 2.570664 0.000000 0.000000 0.000000 -2.952398 1.108343 -10.137983 16.293688 4.375047 49.176277 -5.861272 -15.248596 4.658228 0.000000 0.000000 0.000000 2.988320 -0.378917 7.650631 1.617448 -0.392592 -24.178177 2.351849 21.361630 26.724741 6.549054 -2.417631 -31.563574 0.000000 0.000000 0.000000 6.858997 -4.388335 0.927913 -27.718595 -17.277751 -1.019067 64.564310 -31.525921 -14.457527 0.000000 0.000000 0.000000 19.313567 2.064978 -2.255522 58.692004 0.602517 -7.601005 14.396360 39.796532 6.118683 0.000000 0.000000 0.000000 
-0.109775 0.944400 0.153224 -3.601371 -47.194843 6.110799 2.850064 1.322206 -22.536621 -3.439603 3.899568 20.942089 3.606205 6.801386 3.411389 0.000000 0.000000 0.000000 -2.620816 1.473014 -12.871902 14.107367 5.262077 45.752518 -6.906190 -16.444096 3.063835 0.000000 0.000000 0.000000 4.067241 -0.440852 7.341567 1.718809 -0.587117 -23.246717 2.374291 20.266084 24.806456 5.172753 -2.488226 -28.485725 0.000000 0.000000 0.000000 12.175249 -6.995611 0.809779 -20.447426 -18.003889 -0.670090 51.285862 -22.965652 -6.629456 0.000000 0.000000 0.000000 20.777701 1.807159 -3.823941 56.788709 -2.380920 -8.185448 10.857248 38.035002 4.068922 0.000000 0.000000 0.000000 
